<?xml version="1.0" encoding="UTF-8" standalone="no"?>
<!DOCTYPE svg PUBLIC "-//W3C//DTD SVG 1.1//EN" "http://www.w3.org/Graphics/SVG/1.1/DTD/svg11.dtd">
<svg width="100%" height="100%" viewBox="0 0 2292 1063" version="1.1" xmlns="http://www.w3.org/2000/svg" xmlns:xlink="http://www.w3.org/1999/xlink" xml:space="preserve" xmlns:serif="http://www.serif.com/" style="fill-rule:evenodd;clip-rule:evenodd;stroke-linejoin:round;stroke-miterlimit:2;">
    <g id="Layer-1" serif:id="Layer 1" transform="matrix(4.16667,0,0,4.16667,0,0)">
        <g transform="matrix(1,0,0,1,133.143,109.336)">
            <path d="M0,36.446L0,0L31.562,18.223L0,36.446ZM70.353,-11.018C68.955,-16.244 64.839,-20.361 59.612,-21.758C50.138,-24.297 12.148,-24.297 12.148,-24.297C12.148,-24.297 -25.841,-24.297 -35.315,-21.758C-40.542,-20.361 -44.658,-16.244 -46.055,-11.018C-48.594,-1.544 -48.594,18.223 -48.594,18.223C-48.594,18.223 -48.594,37.99 -46.055,47.464C-44.658,52.69 -40.542,56.807 -35.315,58.204C-25.841,60.743 12.148,60.743 12.148,60.743C12.148,60.743 50.138,60.743 59.612,58.204C64.839,56.807 68.955,52.69 70.353,47.464C72.891,37.99 72.891,18.223 72.891,18.223C72.891,18.223 72.891,-1.544 70.353,-11.018" style="fill:white;fill-rule:nonzero;"/>
        </g>
        <g transform="matrix(1,0,0,1,274.351,120.442)">
            <path d="M0,33.62C0.665,31.884 0.999,29.046 0.999,25.107L0.999,8.513C0.999,4.691 0.665,1.897 0,0.13C-0.667,-1.636 -1.84,-2.52 -3.519,-2.52C-5.141,-2.52 -6.285,-1.636 -6.95,0.13C-7.617,1.897 -7.949,4.691 -7.949,8.513L-7.949,25.107C-7.949,29.046 -7.632,31.884 -6.994,33.62C-6.357,35.358 -5.199,36.226 -3.519,36.226C-1.84,36.226 -0.667,35.358 0,33.62M-13.466,41.961C-15.87,40.341 -17.579,37.82 -18.591,34.402C-19.605,30.986 -20.112,26.439 -20.112,20.763L-20.112,13.031C-20.112,7.297 -19.534,2.692 -18.374,-0.782C-17.217,-4.257 -15.407,-6.791 -12.945,-8.384C-10.484,-9.976 -7.254,-10.773 -3.258,-10.773C0.68,-10.773 3.836,-9.962 6.211,-8.34C8.586,-6.719 10.323,-4.184 11.424,-0.739C12.523,2.707 13.075,7.297 13.075,13.031L13.075,20.763C13.075,26.439 12.539,31.001 11.468,34.446C10.396,37.892 8.658,40.412 6.255,42.004C3.851,43.597 0.593,44.393 -3.519,44.393C-7.747,44.393 -11.063,43.582 -13.466,41.961" style="fill:white;fill-rule:nonzero;"/>
        </g>
        <g transform="matrix(1,0,0,1,446.926,155.58)">
            <path d="M0,-36.662C-0.607,-35.909 -1.014,-34.678 -1.216,-32.97C-1.42,-31.261 -1.52,-28.67 -1.52,-25.195L-1.52,-21.372L7.254,-21.372L7.254,-25.195C7.254,-28.611 7.138,-31.203 6.907,-32.97C6.675,-34.736 6.256,-35.981 5.647,-36.705C5.039,-37.43 4.098,-37.792 2.824,-37.792C1.549,-37.792 0.608,-37.414 0,-36.662M-1.52,-14.248L-1.52,-11.555C-1.52,-8.137 -1.42,-5.574 -1.216,-3.866C-1.014,-2.157 -0.595,-0.912 0.044,-0.13C0.681,0.651 1.664,1.043 2.998,1.043C4.792,1.043 6.023,0.348 6.689,-1.043C7.354,-2.433 7.717,-4.749 7.775,-7.993L18.114,-7.385C18.172,-6.92 18.201,-6.283 18.201,-5.474C18.201,-0.55 16.854,3.128 14.161,5.561C11.469,7.992 7.659,9.209 2.737,9.209C-3.17,9.209 -7.312,7.357 -9.687,3.649C-12.063,-0.057 -13.249,-5.791 -13.249,-13.553L-13.249,-22.849C-13.249,-30.842 -12.019,-36.676 -9.556,-40.355C-7.095,-44.032 -2.881,-45.871 3.085,-45.871C7.196,-45.871 10.353,-45.118 12.554,-43.613C14.754,-42.106 16.304,-39.76 17.202,-36.576C18.1,-33.39 18.549,-28.987 18.549,-23.37L18.549,-14.248L-1.52,-14.248Z" style="fill:white;fill-rule:nonzero;"/>
        </g>
        <g transform="matrix(1,0,0,1,231.691,114.707)">
            <path d="M0,25.628L-13.64,-23.632L-1.738,-23.632L3.04,-1.304C4.257,4.199 5.154,8.89 5.733,12.77L6.081,12.77C6.486,9.99 7.384,5.328 8.774,-1.217L13.726,-23.632L25.628,-23.632L11.815,25.628L11.815,49.26L0,49.26L0,25.628Z" style="fill:white;fill-rule:nonzero;"/>
        </g>
        <g transform="matrix(1,0,0,1,326.136,164.835)">
            <path d="M0,-54.124L0,-0.869L-9.383,-0.869L-10.426,-7.384L-10.686,-7.384C-13.235,-2.461 -17.058,0 -22.154,0C-25.687,0 -28.293,-1.158 -29.973,-3.475C-31.653,-5.791 -32.492,-9.412 -32.492,-14.334L-32.492,-54.124L-20.503,-54.124L-20.503,-15.03C-20.503,-12.654 -20.242,-10.96 -19.721,-9.948C-19.2,-8.933 -18.332,-8.427 -17.115,-8.427C-16.072,-8.427 -15.073,-8.745 -14.118,-9.383C-13.162,-10.02 -12.453,-10.83 -11.989,-11.815L-11.989,-54.124L0,-54.124Z" style="fill:white;fill-rule:nonzero;"/>
        </g>
        <g transform="matrix(1,0,0,1,387.632,164.835)">
            <path d="M0,-54.124L0,-0.869L-9.383,-0.869L-10.426,-7.384L-10.686,-7.384C-13.236,-2.461 -17.058,0 -22.154,0C-25.687,0 -28.293,-1.158 -29.973,-3.475C-31.653,-5.791 -32.492,-9.412 -32.492,-14.334L-32.492,-54.124L-20.503,-54.124L-20.503,-15.03C-20.503,-12.654 -20.243,-10.96 -19.722,-9.948C-19.2,-8.933 -18.332,-8.427 -17.115,-8.427C-16.072,-8.427 -15.073,-8.745 -14.118,-9.383C-13.162,-10.02 -12.454,-10.83 -11.989,-11.815L-11.989,-54.124L0,-54.124Z" style="fill:white;fill-rule:nonzero;"/>
        </g>
        <g transform="matrix(1,0,0,1,358.714,154.323)">
            <path d="M0,-53.603L-11.902,-53.603L-11.902,9.644L-23.63,9.644L-23.63,-53.603L-35.532,-53.603L-35.532,-63.247L0,-63.247L0,-53.603Z" style="fill:white;fill-rule:nonzero;"/>
        </g>
        <g transform="matrix(1,0,0,1,416.321,112.184)">
            <path d="M0,28.763C0,32.644 -0.16,35.685 -0.479,37.885C-0.797,40.087 -1.333,41.651 -2.086,42.576C-2.839,43.503 -3.854,43.966 -5.126,43.966C-6.111,43.966 -7.023,43.736 -7.862,43.271C-8.703,42.808 -9.383,42.114 -9.904,41.186L-9.904,10.953C-9.5,9.506 -8.805,8.318 -7.819,7.391C-6.835,6.466 -5.765,6.001 -4.605,6.001C-3.389,6.001 -2.448,6.479 -1.781,7.434C-1.116,8.39 -0.652,9.997 -0.392,12.257C-0.131,14.515 0,17.729 0,21.899L0,28.763ZM10.989,7.04C10.265,3.682 9.092,1.249 7.471,-0.258C5.849,-1.762 3.618,-2.516 0.781,-2.516C-1.42,-2.516 -3.476,-1.893 -5.387,-0.648C-7.298,0.597 -8.775,2.234 -9.817,4.261L-9.905,4.261L-9.904,-23.801L-21.459,-23.801L-21.459,51.782L-11.556,51.782L-10.339,46.743L-10.078,46.743C-9.152,48.538 -7.763,49.957 -5.908,51C-4.056,52.042 -1.999,52.564 0.261,52.564C4.313,52.564 7.297,50.696 9.208,46.96C11.119,43.224 12.075,37.39 12.075,29.454L12.075,21.028C12.075,15.063 11.713,10.4 10.989,7.04" style="fill:white;fill-rule:nonzero;"/>
        </g>
    </g>
</svg>
